<?xml version="1.0" encoding="utf-8"?>
<!-- Generator: Adobe Illustrator 19.2.1, SVG Export Plug-In . SVG Version: 6.00 Build 0)  -->
<svg version="1.1" id="Layer_1" xmlns="http://www.w3.org/2000/svg" xmlns:xlink="http://www.w3.org/1999/xlink" x="0px" y="0px"
	 viewBox="0 0 259.3 34.5" style="enable-background:new 0 0 259.3 34.5;" xml:space="preserve">
<style type="text/css">
	.st0{fill:#0f295f;}
	.st1{fill:#1AAEE4;}
</style>
<g>
	<path class="st0" d="M7.5,27.8h3.9c3.6,0,6.3-0.8,7.9-2.5c1.7-1.7,2.5-4.3,2.5-7.9c0-3.6-0.8-6.2-2.5-7.9c-1.7-1.7-4.3-2.5-7.9-2.5
		H7.5V27.8z M0.6,33.6V1.2h8.8c3.5,0,6.2,0.2,8.2,0.7c2,0.5,3.8,1.3,5.3,2.4c2,1.5,3.5,3.3,4.5,5.5c1,2.2,1.5,4.8,1.5,7.6
		c0,2.9-0.5,5.4-1.6,7.7c-1,2.2-2.5,4.1-4.5,5.5c-1.5,1.1-3.1,1.8-4.9,2.3c-1.8,0.5-4.5,0.7-7.9,0.7H7.5H0.6z"/>
	<rect x="34.9" y="1.2" class="st0" width="6.9" height="32.4"/>
	<path class="st0" d="M63.2,16.5l16.9,0c0,0.2,0,0.4,0.1,0.6c0,0.2,0,0.6,0,1c0,4.9-1.4,8.8-4.2,11.8c-2.8,3-6.4,4.5-10.8,4.5
		c-5,0-9.2-1.6-12.4-4.8c-3.3-3.2-4.9-7.3-4.9-12.2c0-4.9,1.6-9,4.9-12.2c3.3-3.2,7.4-4.8,12.4-4.8c2.6,0,5.1,0.6,7.3,1.7
		c2.2,1.1,4.2,2.8,5.9,5l-4.7,3.5C72.6,9.1,71.3,8,70,7.4c-1.3-0.6-2.8-1-4.5-1c-3.2,0-5.8,1-7.7,3c-1.9,2-2.9,4.7-2.9,8
		c0,3.3,1,5.9,2.9,7.9c1.9,2,4.4,3,7.5,3c2.3,0,4.1-0.5,5.5-1.6c1.4-1.1,2.1-2.5,2.1-4.2v-0.4H68L63.2,16.5z"/>
	<rect x="85.8" y="1.2" class="st0" width="6.9" height="32.4"/>
	<polygon class="st0" points="112.2,7.1 112.2,33.6 105.3,33.6 105.3,7.1 97.3,7.1 97.3,1.2 123.1,1.2 120.9,7.1 	"/>
	<path class="st0" d="M138.6,1.2h-7.9l-12.3,32.4h7.4c0,0,8.5-26.1,8.7-27.2c0.2,1.1,4.5,14.8,4.5,14.8H133l10.3,12.3h7.9L138.6,1.2
		z"/>
	<polygon class="st0" points="154.6,33.6 154.6,1.2 161.5,1.2 161.5,27.7 169.3,27.7 174.3,33.6 	"/>
</g>
<g>
	<rect x="202.5" y="1.2" class="st1" width="6.9" height="32.4"/>
	<polygon class="st1" points="231.6,27.8 223.7,27.8 223.7,1.2 216.8,1.2 216.8,33.7 236.5,33.7 	"/>
	<polygon class="st1" points="246.1,16 257.7,1.2 249.7,1.2 238.9,15.9 238.9,1.2 231.9,1.2 231.9,18.9 238.9,27.1 238.9,16.6 
		249.8,33.6 258.1,33.6 	"/>
	<path class="st1" d="M194.7,19.1c-1.3-1.6-3.4-3-6.1-4.3c-0.4-0.2-0.9-0.4-1.5-0.7c-3.3-1.4-5-3-5-4.7c0-1.1,0.4-2,1.3-2.7
		c0.8-0.7,1.9-1,3.3-1c1.1,0,2.1,0.2,2.9,0.7c0.8,0.5,1.5,1.2,1.9,2.1l4.1-3.9c-1.1-1.5-2.4-2.5-3.8-3.2c-1.4-0.7-3.1-1-5.1-1
		c-3.4,0-6.1,0.9-8.2,2.6c-2.1,1.7-3.2,3.9-3.2,6.6c0,2,0.5,3.6,1.6,5c1.1,1.4,3.1,2.9,5.9,4.3c0.6,0.3,1.4,0.7,2.4,1.2
		c3.1,1.5,4.7,3,4.7,4.6c0,1.3-0.5,2.3-1.4,3.1c-0.9,0.8-2.2,1.2-3.9,1.2c-1.3,0-2.6-0.3-3.6-1c-1.1-0.7-1.9-1.6-2.3-2.8l-3.6,0.1
		l7.7,9.1c0.8,0.1,1.6,0.2,2.5,0.2c3.5,0,6.3-0.9,8.4-2.7c2.1-1.8,3.1-4.2,3.1-7.3C196.7,22.5,196,20.7,194.7,19.1z"/>
</g>
</svg>
