<svg xmlns="http://www.w3.org/2000/svg" width="17" height="16" viewBox="0 0 17 16" fill="none">
	<path fill-rule="evenodd" clip-rule="evenodd" d="M8.85188 10.8572C8.80546 10.9037 8.75033 10.9406 8.68966 10.9657C8.62898 10.9909 8.56394 11.0038 8.49825 11.0038C8.43257 11.0038 8.36753 10.9909 8.30685 10.9657C8.24617 10.9406 8.19104 10.9037 8.14463 10.8572L4.3935 7.10419C4.34603 7.05798 4.30821 7.0028 4.28223 6.94186C4.25626 6.88091 4.24265 6.81541 4.2422 6.74916C4.24175 6.68292 4.25446 6.61724 4.27959 6.55594C4.30473 6.49465 4.34179 6.43895 4.38863 6.3921C4.43547 6.34524 4.49115 6.30816 4.55243 6.283C4.61372 6.25784 4.67939 6.2451 4.74564 6.24553C4.81189 6.24595 4.87739 6.25954 4.93835 6.28549C4.9993 6.31144 5.0545 6.34924 5.10073 6.39669L8.49823 9.79589L11.8957 6.39669C11.9419 6.34915 11.9971 6.31127 12.0581 6.28525C12.1191 6.25923 12.1846 6.24559 12.2509 6.24513C12.3172 6.24466 12.383 6.25738 12.4443 6.28254C12.5056 6.3077 12.5614 6.34481 12.6082 6.39169C12.6551 6.43858 12.6922 6.49432 12.7173 6.55566C12.7425 6.61701 12.7552 6.68274 12.7547 6.74904C12.7542 6.81533 12.7405 6.88087 12.7145 6.94184C12.6885 7.00281 12.6506 7.058 12.603 7.10419L8.85188 10.8572Z" fill="currentColor"/>
</svg>
