<svg xmlns="http://www.w3.org/2000/svg" width="20" height="20" viewBox="0 0 20 20" fill="currentColor">
	<path d="M15.9189 12.3192C15.6599 12.5702 15.5409 12.9332 15.5999 13.2892L16.4889 18.2092C16.5639 18.6262 16.3879 19.0482 16.0389 19.2892C15.6969 19.5392 15.2419 19.5692 14.8689 19.3692L10.4399 17.0592C10.2859 16.9772 10.1149 16.9332 9.93989 16.9282H9.66889C9.57489 16.9422 9.48289 16.9722 9.39889 17.0182L4.96888 19.3392C4.74988 19.4492 4.50188 19.4882 4.25888 19.4492C3.66688 19.3372 3.27188 18.7732 3.36888 18.1782L4.25888 13.2582C4.31788 12.8992 4.19888 12.5342 3.93988 12.2792L0.328876 8.77925C0.0268757 8.48625 -0.0781242 8.04625 0.0598758 7.64927C0.193876 7.25327 0.535876 6.96427 0.948876 6.89927L5.91888 6.17827C6.29688 6.13927 6.62888 5.90927 6.79888 5.56927L8.98889 1.07927C9.04089 0.979268 9.10789 0.887268 9.18889 0.809268L9.27889 0.739268C9.32589 0.687268 9.37988 0.644268 9.43989 0.609268L9.54889 0.569268L9.71889 0.499268H10.1399C10.5159 0.538268 10.8469 0.763268 11.0199 1.09927L13.2389 5.56927C13.3989 5.89627 13.7099 6.12327 14.0689 6.17827L19.0389 6.89927C19.4589 6.95927 19.8099 7.24927 19.9489 7.64927C20.0799 8.05025 19.9669 8.49025 19.6589 8.77925L15.9189 12.3192Z"/>
</svg>
