<svg width="12" height="15" viewBox="0 0 12 15" fill="none" xmlns="http://www.w3.org/2000/svg"><path fill-rule="evenodd" clip-rule="evenodd" d="M4.96927 14.0809 6 14.9995l1.03073-.9186C10.3221 11.1477 12 8.54211 12 6.10311 12 2.64043 9.34263 0 6 0S0 2.64043 0 6.10311c0 2.439 1.67789 5.04459 4.96927 7.97779ZM6 2c2.24092 0 4 1.74788 4 4.10311 0 1.66964-1.298 3.74378-4 6.21399-2.702-2.47021-4-4.54435-4-6.21399C2 3.74788 3.75908 2 6 2Zm0 1c1.65685 0 3 1.34315 3 3S7.65685 9 6 9 3 7.65685 3 6s1.34315-3 3-3ZM5 6c0-.55228.44772-1 1-1s1 .44772 1 1-.44772 1-1 1-1-.44772-1-1Z" fill="currentColor"/></svg>