<svg width="28" height="28" viewBox="0 0 28 28" fill="none" xmlns="http://www.w3.org/2000/svg"><g clip-path="url(#a)"><path d="m26.9245 6.81418.0338.2205a3.42485 3.42485 0 0 0-.8554-1.48945 3.42379 3.42379 0 0 0-1.4711-.88655l-.0237-.00562c-2.1048-.5715-10.575-.5715-10.575-.5715s-8.44872-.01125-10.57497.5715a3.42445 3.42445 0 0 0-2.34338 2.358l-.00562.02362C.32275 11.1421.31713 16.0774 1.144 20.4751l-.03487-.2228a3.42396 3.42396 0 0 0 .85538 1.4895 3.42352 3.42352 0 0 0 1.47112.8865l.02362.0056c2.10263.5727 10.57505.5727 10.57505.5727s8.4476 0 10.5749-.5727a3.42259 3.42259 0 0 0 1.4778-.8752c.4102-.4126.7085-.9229.8668-1.4828l.0056-.0236c.3577-1.9102.5625-4.1085.5625-6.354l-.0011-.2486.0011-.2588c0-2.2466-.2048-4.44484-.5974-6.57672ZM11.3309 17.7514V9.54681l7.0492 4.10849-7.0492 4.0961Z" fill="currentColor"/></g><defs><clipPath id="a"><path fill="#fff" d="M.52185.14404h27v27h-27z"/></clipPath></defs></svg>