<svg width="15" height="14" viewBox="0 0 15 14" fill="none" xmlns="http://www.w3.org/2000/svg"><path d="M3.3281 4.6202H.3242v9.0367h3.004V4.6202ZM1.8468.2638C.819.2638.1465.938.1465 1.8248c0 .8677.6528 1.5623 1.6606 1.5623h.0203c1.0475 0 1.6995-.6946 1.6995-1.5623C3.507.938 2.8749.2638 1.8468.2638ZM10.7024 4.4078c-1.5958 0-2.309.8785-2.708 1.4932v.0293h-.0193c.0056-.0092.0138-.0198.0194-.0293V4.6203H4.9902c.0401.848 0 9.0366 0 9.0366h3.0044V8.6101c0-.2706.0202-.5392.0995-.7325.2177-.5403.7116-1.0989 1.5418-1.0989 1.0872 0 1.5221.8291 1.5221 2.0435v4.8349h3.0039V8.475c-.0001-2.7758-1.4821-4.0672-3.4595-4.0672Z" fill="currentColor"/></svg>
