<svg width="28" height="29" viewBox="0 0 28 29" fill="none" xmlns="http://www.w3.org/2000/svg"><g clip-path="url(#a)"><path d="M14.5982 28.6444c-.0895 0-.1789 0-.2689-.0004-2.1164.0054-4.0718-.0504-5.97361-.1705-1.7435-.11-3.33502-.7348-4.6027-1.8068-1.22323-1.0343-2.05849-2.4329-2.48263-4.1564-.36914-1.5005-.3887-2.9735-.40748-4.3981C.84928 17.0901.8353 15.8787.8324 14.647c.0029-1.2369.01687-2.4481.03048-3.4703.01877-1.42444.03834-2.89733.40748-4.39807.42414-1.72353 1.25945-3.12211 2.48263-4.15647C5.02067 1.55018 6.61219.92537 8.35591.81534 10.2576.69552 12.2135.63952 14.3345.64488c2.117-.0047 4.0718.05064 5.9735.17046 1.7436.11003 3.3351.73489 4.6028 1.80688 1.2234 1.0343 2.0585 2.43288 2.4826 4.15641.3692 1.50046.3887 2.97363.4075 4.39807.0136 1.0222.0278 2.2334.0304 3.4652v.0051c-.0026 1.2317-.0168 2.443-.0304 3.4652-.0188 1.4244-.0381 2.8973-.4075 4.3981-.4241 1.7235-1.2593 3.1221-2.4826 4.1564-1.2677 1.072-2.8593 1.6968-4.6028 1.8068-1.8211.115-3.6919.1709-5.7098.1709Zm-.2689-2.1879c2.0819.0051 3.9936-.0493 5.8507-.1664 1.3183-.0831 2.4613-.5268 3.3978-1.3187.8656-.7321 1.4618-1.7421 1.7718-3.0021.3073-1.249.325-2.5901.3421-3.887.0134-1.0154.0274-2.218.0303-3.4379-.0029-1.22-.0169-2.4224-.0303-3.4378-.0171-1.29689-.0348-2.63805-.3421-3.88727-.3101-1.26-.9062-2.26997-1.7718-3.00207-.9365-.79166-2.0795-1.23539-3.3978-1.31852-1.8571-.11725-3.7687-.17128-5.8458-.16658-2.0815-.00514-3.9933.04933-5.85036.16664-1.31836.08312-2.46143.5268-3.39789 1.31851-.86558.73205-1.46174 1.74207-1.77177 3.00202-.30733 1.24922-.32505 2.59016-.34214 3.88727-.01339 1.0162-.02742 2.2196-.03027 3.4404.0029 1.2155.01688 2.4191.03027 3.4353.01709 1.2969.03481 2.638.34214 3.887.31008 1.26.90619 2.27 1.77177 3.0021.93646.7917 2.07953 1.2354 3.39789 1.3185 1.85706.1173 3.76926.172 5.84546.1666Zm-.0503-4.9761c-3.6345 0-6.59177-3.0666-6.59177-6.836 0-3.7693 2.95727-6.83589 6.59177-6.83589 3.6348 0 6.5918 3.06659 6.5918 6.83589 0 3.7694-2.957 6.836-6.5918 6.836Zm0-11.48439c-2.4715 0-4.48239 2.08539-4.48239 4.64839 0 2.5631 2.01089 4.6485 4.48239 4.6485 2.4717 0 4.4825-2.0854 4.4825-4.6485 0-2.563-2.0108-4.64839-4.4825-4.64839Zm7.3301-4.375c-.8736 0-1.582.73445-1.582 1.64062 0 .90617.7084 1.64063 1.582 1.64063.8738 0 1.582-.73446 1.582-1.64063s-.7082-1.64062-1.582-1.64062Z" fill="currentColor"/></g><defs><clipPath id="a"><path fill="#fff" d="M.8324.64404h27v28h-27z"/></clipPath></defs></svg>