<svg xmlns="http://www.w3.org/2000/svg" width="19.586" height="19.586" viewBox="0 0 19.586 19.586"><path data-name="Path 2" d="M0 0h19.586v19.586H0Z" fill="none"/><path data-name="Path 3" d="M5.361 8.8a12.418 12.418 0 0 0 5.434 5.43l1.814-1.818a.827.827 0 0 1 .837-.2 9.387 9.387 0 0 0 2.944.47.822.822 0 0 1 .825.825v2.886a.822.822 0 0 1-.825.825A14.017 14.017 0 0 1 2.372 3.197a.824.824 0 0 1 .825-.825h2.886a.822.822 0 0 1 .825.825 9.387 9.387 0 0 0 .47 2.944.827.827 0 0 1-.2.837Z" fill="currentColor"/></svg>