<svg xmlns="http://www.w3.org/2000/svg" width="31" height="31" viewBox="0 0 31 31" fill="none">
	<path d="M9.04297 11.625L15.5013 16.1458L21.9596 11.625" stroke="currentColor" stroke-width="1.5" stroke-linecap="round" stroke-linejoin="round"/>
	<path d="M2.58398 21.9583V9.04159C2.58398 8.35644 2.85616 7.69936 3.34063 7.21489C3.82509 6.73042 4.48218 6.45825 5.16732 6.45825H25.834C26.5191 6.45825 27.1762 6.73042 27.6607 7.21489C28.1451 7.69936 28.4173 8.35644 28.4173 9.04159V21.9583C28.4173 22.6434 28.1451 23.3005 27.6607 23.7849C27.1762 24.2694 26.5191 24.5416 25.834 24.5416H5.16732C4.48218 24.5416 3.82509 24.2694 3.34063 23.7849C2.85616 23.3005 2.58398 22.6434 2.58398 21.9583Z" stroke="currentColor" stroke-width="1.5"/>
</svg>
