<svg xmlns="http://www.w3.org/2000/svg" width="28" height="28" fill="currentColor" viewBox="0 0 24 24">
	<path d="M20.52 3.48A11.92 11.92 0 0 0 12.04 0C5.4 0 .07 5.33.07 11.92c0 2.1.55 4.15 1.6 5.95L0 24l6.29-1.64a11.83 11.83 0 0 0 5.75 1.47h.01c6.64 0 11.97-5.33 11.97-11.92a11.86 11.86 0 0 0-3.5-8.43zM12.05 21.3c-1.89 0-3.74-.51-5.35-1.47l-.38-.22-3.73.97 1-3.64-.25-.37a9.8 9.8 0 0 1-1.51-5.19c0-5.44 4.44-9.87 9.9-9.87 2.65 0 5.14 1.03 7.01 2.9a9.77 9.77 0 0 1 2.9 6.97c0 5.44-4.44 9.87-9.9 9.87zm5.43-7.34c-.3-.15-1.77-.87-2.04-.97-.27-.1-.47-.15-.67.15-.2.29-.77.97-.94 1.16-.17.19-.35.21-.64.07-.3-.15-1.26-.46-2.4-1.46-.89-.78-1.49-1.73-1.66-2.02-.17-.29-.02-.45.13-.6.14-.14.3-.36.44-.54.15-.18.2-.29.3-.48.1-.19.05-.36-.02-.51-.07-.15-.67-1.61-.92-2.21-.24-.57-.48-.49-.67-.5h-.57c-.2 0-.51.07-.77.36s-1.01.98-1.01 2.38c0 1.4 1.04 2.75 1.19 2.94.15.19 2.04 3.13 4.94 4.38.69.3 1.23.48 1.65.61.69.22 1.32.19 1.82.11.55-.08 1.77-.72 2.02-1.41.25-.69.25-1.29.18-1.41-.08-.12-.27-.19-.57-.34z"/>
</svg>
