<svg xmlns="http://www.w3.org/2000/svg" width="24" height="24" viewBox="0 0 24 24" fill="none">
	<path d="M8.47929 2.02006C9.50979 1.87806 10.3763 2.50856 10.7863 3.32806L11.7948 5.34456C12.3543 6.46356 12.0328 7.77656 11.1848 8.60256C10.6838 9.09006 10.1803 9.64706 9.88829 10.1386C9.86886 10.1736 9.86282 10.2144 9.87129 10.2536C10.1413 11.7166 11.1328 13.1621 12.0173 14.1986C12.0619 14.2478 12.1199 14.2829 12.1843 14.2995C12.2486 14.3161 12.3164 14.3135 12.3793 14.2921L14.3668 13.6711C14.9022 13.5037 15.4771 13.5123 16.0072 13.6955C16.5374 13.8787 16.9949 14.2269 17.3128 14.6891L18.7513 16.7816C19.1413 17.3491 19.3388 18.1191 19.0398 18.8596C18.7728 19.5211 18.2563 20.4751 17.3168 21.1096C16.3418 21.7676 15.0063 22.0176 13.2588 21.4186C11.3063 20.7486 9.46179 19.0686 7.93229 16.9201C6.39379 14.7581 5.12729 12.0576 4.35929 9.24156C3.63329 6.58306 4.07129 4.79306 5.10229 3.64056C6.09679 2.52856 7.52179 2.15156 8.47929 2.02006ZM9.66779 3.88706C9.43929 3.43056 9.03179 3.20506 8.64929 3.25756C7.79879 3.37456 6.73379 3.69106 6.03429 4.47356C5.37129 5.21506 4.91229 6.52106 5.56429 8.91256C6.29679 11.5966 7.50279 14.1616 8.95029 16.1951C10.4068 18.2416 12.0618 19.6866 13.6638 20.2361C15.0913 20.7256 16.0088 20.4836 16.6168 20.0736C17.2598 19.6391 17.6553 18.9486 17.8803 18.3916C17.9833 18.1366 17.9388 17.8066 17.7208 17.4896L16.2823 15.3976C16.1158 15.1554 15.8762 14.973 15.5985 14.877C15.3209 14.781 15.0197 14.7765 14.7393 14.8641L12.7518 15.4851C12.1578 15.6706 11.4888 15.5051 11.0663 15.0101C10.1458 13.9316 8.97279 12.2776 8.64129 10.4801C8.57797 10.1432 8.63909 9.79477 8.81329 9.49956C9.19229 8.86256 9.79229 8.21306 10.3118 7.70706C10.8193 7.21306 10.9633 6.47806 10.6763 5.90356L9.66779 3.88706Z" fill="currentColor"/>
</svg>
