<svg xmlns="http://www.w3.org/2000/svg" x="0px" y="0px" width="38px" height="38px" viewBox="0 0 38 38" enable-background="new 0 0 38 38" xml:space="preserve">
<g>
	<path fill="currentColor" d="M19,1.52c9.64,0,17.479,7.842,17.479,17.48c0,9.639-7.842,17.479-17.479,17.479   c-9.639,0-17.479-7.84-17.479-17.479C1.521,9.362,9.361,1.52,19,1.52 M19,0C8.507,0,0,8.507,0,19s8.507,19,19,19s19-8.507,19-19   S29.493,0,19,0L19,0z"/>
	<rect x="14" y="13" fill="currentColor" width="3" height="12"/>
	<rect x="21" y="13" fill="currentColor" width="3" height="12"/>
</g>
</svg>