<svg xmlns="http://www.w3.org/2000/svg" width="24" height="24" viewBox="0 0 24 24">
  <g id="Group_15800" data-name="Group 15800" transform="translate(-6 -6)">
    <circle id="Ellipse_1" data-name="Ellipse 1" cx="2.52" cy="2.52" r="2.52" transform="translate(15.48 15.48)"/>
    <path id="Path_7058" data-name="Path 7058" d="M18,6A12,12,0,1,0,30,18,12,12,0,0,0,18,6Zm7.414,15.05a4.54,4.54,0,0,1-1.21,3.088,4.624,4.624,0,0,1-3.122,1.2H14.917a4.623,4.623,0,0,1-3.122-1.2,4.54,4.54,0,0,1-1.21-3.088v-6.1a4.541,4.541,0,0,1,1.21-3.089,4.624,4.624,0,0,1,3.122-1.2h6.165a4.623,4.623,0,0,1,3.122,1.2,4.54,4.54,0,0,1,1.21,3.089Z" transform="translate(0 0)"/>
    <path id="Path_7059" data-name="Path 7059" d="M138.708,131.525c-1.5-.041-4.507-.041-6.009,0a3.15,3.15,0,0,0-2.224.811,3.189,3.189,0,0,0-.819,2.2c-.039,1.466,0,5.868,0,5.868a3.2,3.2,0,0,0,.819,2.2,3.149,3.149,0,0,0,2.224.811c1.5.041,4.507.041,6.009,0a3.15,3.15,0,0,0,2.224-.811,3.189,3.189,0,0,0,.819-2.2v-5.868a3.189,3.189,0,0,0-.819-2.2A3.15,3.15,0,0,0,138.708,131.525Zm-3,9.851a3.906,3.906,0,1,1,3.906-3.906A3.906,3.906,0,0,1,135.7,141.377Zm3.923-7.006a.781.781,0,1,1,.781-.781.781.781,0,0,1-.781.781Z" transform="translate(-117.703 -119.471)"/>
  </g>
</svg>
