<svg id="Group_15816" data-name="Group 15816" xmlns="http://www.w3.org/2000/svg" width="24" height="24" viewBox="0 0 24 24">
  <g id="Layer_2" data-name="Layer 2">
    <rect id="Rectangle_1083" data-name="Rectangle 1083" width="24" height="24" rx="12"/>
    <g id="Group_15815" data-name="Group 15815" transform="translate(4.555 4.5)">
      <path id="Path_7067" data-name="Path 7067" d="M37.491,35.045A2.045,2.045,0,1,1,35.445,33,2.045,2.045,0,0,1,37.491,35.045Zm-.464,3.409v9.037a.506.506,0,0,1-.506.509H34.365a.506.506,0,0,1-.507-.507V38.455a.507.507,0,0,1,.507-.507h2.156A.507.507,0,0,1,37.027,38.455Zm11.269,4.7v4.375A.465.465,0,0,1,47.83,48H45.512a.465.465,0,0,1-.466-.466v-4.24c0-.633.185-2.771-1.654-2.771-1.425,0-1.715,1.463-1.773,2.12v4.89a.466.466,0,0,1-.46.466H38.92a.465.465,0,0,1-.465-.466V38.415a.465.465,0,0,1,.465-.466h2.239a.466.466,0,0,1,.466.466V39.2A3.174,3.174,0,0,1,44.612,37.8C48.318,37.8,48.3,41.258,48.3,43.159Z" transform="translate(-33.4 -33)" fill="#eef9f2"/>
    </g>
  </g>
</svg>
