<?xml version="1.0" encoding="utf-8"?>
<!-- Generator: Adobe Illustrator 27.5.0, SVG Export Plug-In . SVG Version: 6.00 Build 0)  -->
<svg version="1.1" id="Capa_1" xmlns="http://www.w3.org/2000/svg" xmlns:xlink="http://www.w3.org/1999/xlink" x="0px" y="0px"
	 viewBox="0 0 1733 2599" style="enable-background:new 0 0 1733 2599;" xml:space="preserve">
<path style="fill:#FCC362;" d="M1283.602,813.566c-15.807-24.126-37.201-36.298-57.267-55.58
	c-20.238-19.446-34.948-43.871-50.803-66.944c-9.852-14.337-22.185-31.996-36.123-48.604c-2.056-3.952-4.22-7.845-6.496-11.674
	c-7.767-13.065-22.342-34.528-38.972-48.964c-9.538-15.947-24.978-28.93-41.696-36.433c-12.328-5.534-35.742-14.577-49.82-7.21
	c-0.312,0.721-0.624,1.446-0.936,2.172c-8.048-3.959-15.472-7.401-21.722-10.139c-0.309-3.086-3.025-21.541-24.327-30.657
	l-5.61,2.459c-1.709-6.891-3.611-13.905-5.667-21.012c14.014-13.088,23.22-27.932,28.2-45.165
	c3.242-11.215,4.116-23.157,4.101-34.697c-0.005-3.689,0.008-14.399,0.024-27.446c16.706,0.563,32.251-47.618,24.392-64.104
	c-1.033-2.174-2.16-3.882-3.353-5.2c3.483-4.011,6.696-8.255,9.31-12.583c5.915-9.793,9.138-14.516,11.531-34.529
	c2.367-19-0.64-40.15-5.146-53.92c-7.532-23.016-26.124-43.433-52.294-58.153c2.951-3.018,5.8-6.119,8.461-9.227
	c19.06-22.265,21.271-36.475,14.185-42.541c-7.086-6.066-20.785-1.691-39.846,20.573c-2.403,2.807-4.776,5.765-7.075,8.802
	c1.718-6.034,3.187-12.229,4.286-18.228c5.281-28.828,0.048-42.224-9.128-43.904c-9.175-1.681-18.817,8.989-24.099,37.817
	c-1.049,5.728-1.846,11.742-2.38,17.716c-0.68-4.109-1.483-8.185-2.4-12.116c-6.661-28.541-16.805-38.735-25.889-36.615
	c-9.083,2.12-13.667,15.752-7.006,44.293c0.747,3.2,1.604,6.452,2.548,9.7c-9.159-0.415-18.586-0.31-28.228,0.36
	c-48.588,2.728-103.095,38.219-122.418,81.523c-4.016,9.002-7.159,21.157-7.953,33.803c-1.171,12.417-0.55,20.634,1.229,31.339
	c2.3,13.837,8.605,28.79,15.127,41.01c0.342,0.642,0.693,1.292,1.053,1.947c-7.146,16.758,8.344,63.009,24.703,63.409
	c0.015,12.513,0.028,22.695,0.023,26.273c-0.015,11.539,0.859,23.481,4.101,34.697c4.98,17.233,14.186,32.077,28.2,45.165
	c-2.056,7.108-3.958,14.121-5.667,21.012l-5.61-2.459c-20.027,8.57-23.628,25.396-24.244,29.945
	c-5.868,2.156-11.633,4.361-17.282,6.647c-0.159-0.578-0.315-1.158-0.466-1.741c-11.382-11.182-37.478-4.029-49.321,4.792
	c-10.981,8.18-18.015,17.527-17.997,30.318c0.002,1.826,0.073,3.585,0.204,5.288c-6.979,5.958-13.506,12.524-19.523,19.842
	c-36.482,17.029-70.269,64.799-91.996,96.417c-15.854,23.073-30.565,47.498-50.803,66.944
	c-20.066,19.282-41.461,31.454-57.267,55.58c-22.501,34.343-37.248,79.247-33.245,122.867c1.768,19.266,7.809,41.631,23.532,51.773
	c21.615,13.941,60.753,18.373,80.966,0.277c9.948-8.906,20.133-12.466,30.96-19.449c7.23-4.664,11.889-9.872,16.336-16.404
	c8.529-5.603,17.174-11.338,25.839-17.163c8.206,50.058,18.498,99.881,21.431,150.556c5.312,91.767-16.591,182.095-25.386,272.962
	c-16.007,165.362-24.943,332.446-9.921,498.212c3.415,37.689,1.201,83.961,9.814,124.97c7.215,2.334,14.47,4.533,21.76,6.607
	c3.329,45.679,6.961,91.332,10.597,136.945c2.197,27.557,4.485,55.107,6.827,82.653c0.869,10.218,1.689,20.446,2.695,30.652
	c3.174,32.177,7.221,64.608,13.08,96.443c3.393,0.991,6.784,1.991,10.211,2.862c0.66,0.168,1.322,0.329,1.983,0.493l-1.68,32.524
	c-1.704-0.29-3.394-0.612-5.045-0.996c-0.597,5.023-2.146,10.23-4.308,15.503c-0.902,2.368-2.036,4.726-3.169,7.085
	c-1.122,2.247-2.339,4.512-3.557,6.777c-1.535,2.847-3.18,5.634-4.852,8.454l-0.027,0.033c-1.435,2.335-2.842,4.636-4.25,6.939
	c-1.538,2.657-3.144,5.299-4.671,7.843l-0.731,1.183c-4.355,7.339-10.488,20.443-13.088,32.386
	c-5.071,10.679-7.926,22.733-7.926,35.491c0,3.326,0.196,6.394,0.572,9.225c-0.601-0.173-1.199-0.349-1.79-0.533
	c6.863,37.657,38.439,36.851,76.364,36.851c37.925,0,69.501,0.807,76.365-36.851c-0.592,0.184-1.19,0.36-1.79,0.533
	c0.376-2.832,0.572-5.898,0.572-9.225c0-12.77-2.861-24.834-7.94-35.521c-0.82-5.159-2.778-11.852-6.046-20.754
	c-1.871-5.098-4.379-9.4-5.868-14.319c-0.793-2.45-1.394-4.937-1.833-7.428c-0.456-1.885-0.816-3.789-1.081-5.711
	c-0.313-2.351-0.599-4.736-0.749-7.091c-0.086-1.847-0.145-3.727-0.163-5.56c-0.078-2.15,0.009-4.305,0.067-6.427
	c0.297-5.046,0.962-10.055,1.932-14.848c-1.337,0.665-3.406,1.232-5.712,1.696l2.203-27.636c10.181,0.298,20.372,0.173,30.526-0.359
	c7.614-82.168,16.789-161.381,26.021-244.539c3.203-28.849,7.033-57.641,11.273-86.384c23.827,1.096,47.668,1.385,71.396,1.036
	c22.677-0.334,46.181-0.781,69.985-1.81c4.286,29,8.156,58.05,11.387,87.158c9.232,83.158,18.407,162.37,26.021,244.539
	c10.154,0.531,20.345,0.657,30.526,0.359l2.203,27.636c-2.306-0.464-4.376-1.03-5.713-1.696c0.97,4.793,1.635,9.802,1.932,14.848
	c0.059,2.122,0.145,4.277,0.068,6.427c-0.018,1.833-0.078,3.713-0.163,5.56c-0.15,2.355-0.437,4.74-0.749,7.091
	c-0.265,1.922-0.626,3.826-1.081,5.711c-0.438,2.491-1.041,4.978-1.833,7.428c-1.49,4.919-3.997,9.22-5.868,14.319
	c-3.268,8.902-5.226,15.595-6.046,20.754c-5.08,10.686-7.94,22.75-7.94,35.521c0,3.326,0.195,6.394,0.572,9.225
	c-0.601-0.173-1.199-0.349-1.791-0.533c6.864,37.657,38.44,36.851,76.365,36.851c37.924,0,69.501,0.807,76.364-36.851
	c-0.592,0.184-1.19,0.36-1.79,0.533c0.376-2.831,0.571-5.898,0.571-9.225c0-12.758-2.855-24.812-7.926-35.491
	c-2.599-11.943-8.733-25.047-13.088-32.386l-0.731-1.183c-1.526-2.544-3.133-5.187-4.671-7.843c-1.408-2.302-2.816-4.604-4.25-6.939
	l-0.027-0.033c-1.671-2.819-3.317-5.606-4.852-8.454c-1.218-2.265-2.435-4.53-3.557-6.777c-1.134-2.359-2.268-4.717-3.169-7.085
	c-2.162-5.272-3.712-10.48-4.308-15.503c-1.651,0.384-3.34,0.706-5.045,0.996l-1.68-32.524c0.661-0.164,1.323-0.325,1.983-0.493
	c3.427-0.871,6.818-1.871,10.212-2.862c5.859-31.836,9.906-64.266,13.079-96.443c1.007-10.205,1.827-20.434,2.695-30.652
	c2.342-27.546,4.63-55.096,6.826-82.653c3.673-46.075,7.342-92.192,10.698-138.336c2.588-0.88,5.161-1.787,7.717-2.72
	c28.288-10.33,18.038-40.231,18.883-68.207c1.11-36.726,2.221-73.451,3.331-110.176c0-108.319,6.595-214.455-0.484-322.694
	c-2.242-34.277-6.08-68.627-10.487-103.015c17.955-1.844,35.903-4.506,53.953-8.738c49.157-11.526,26.629-50.228,16.525-87.148
	c-26.068-95.25-48.288-197.596-48.316-296.893c-0.003-11.916,0.405-23.79,1.063-35.636l0.719,0.472
	c4.448,6.531,9.106,11.74,16.336,16.404c10.827,6.983,21.012,10.543,30.961,19.449c20.212,18.096,59.351,13.664,80.966-0.277
	c15.723-10.142,21.764-32.507,23.532-51.773C1320.849,892.813,1306.103,847.909,1283.602,813.566z"/>
<path style="fill:#E5E4DB;" d="M752.914,2492.045c0-12.77-2.861-24.834-7.94-35.521c-0.82-5.159-2.778-11.852-6.046-20.754
	c-1.871-5.098-4.379-9.4-5.868-14.319c-0.793-2.45-1.394-4.937-1.833-7.428c-0.456-1.885-0.816-3.789-1.081-5.711
	c-0.313-2.351-0.599-4.736-0.749-7.091c-0.086-1.847-0.145-3.727-0.163-5.56c-0.078-2.15,0.009-4.305,0.067-6.427
	c0.297-5.046,0.962-10.055,1.932-14.848c-1.337,0.665-3.406,1.232-5.712,1.696l-1.516,0.285l-0.76-0.537l-1.203-0.727
	c0.35-1.287,0.653-2.579,0.717-3.917c0.207-4.3-2.823-7.15-5.682-8.93c-5.056-3.148-10.669-4.203-16.156-5.583
	c-7.025-1.767-14.362-2.281-21.514-2.059c-6.008,0.187-18.286,1.407-20.521,10.118c-0.554,2.159-0.813,4.636-1.051,7.188
	c-1.198-0.181-2.396-0.368-3.587-0.571c-1.704-0.29-3.394-0.612-5.045-0.996c-0.597,5.023-2.146,10.23-4.308,15.503
	c-0.902,2.368-2.036,4.726-3.169,7.085c-1.122,2.247-2.339,4.512-3.557,6.777c-1.535,2.847-3.18,5.634-4.852,8.454l-0.027,0.033
	c-1.435,2.335-2.842,4.636-4.25,6.939c-1.538,2.657-3.144,5.299-4.671,7.843l-0.731,1.183c-4.355,7.339-10.488,20.443-13.088,32.386
	c-5.071,10.679-7.926,22.733-7.926,35.491c0,3.326,0.196,6.394,0.572,9.225c-0.601-0.173-1.199-0.349-1.79-0.533
	c6.863,37.657,38.439,36.851,76.364,36.851c37.925,0,69.501,0.807,76.365-36.851c-0.592,0.184-1.19,0.36-1.79,0.533
	C752.718,2498.438,752.914,2495.371,752.914,2492.045z"/>
<path style="fill:#E5E4DB;" d="M1129.388,2501.27c0.376-2.831,0.571-5.898,0.571-9.225c0-12.758-2.855-24.812-7.926-35.491
	c-2.599-11.943-8.733-25.047-13.088-32.386l-0.731-1.183c-1.526-2.544-3.133-5.187-4.671-7.843c-1.408-2.302-2.816-4.604-4.25-6.939
	l-0.027-0.033c-1.671-2.819-3.317-5.606-4.852-8.454c-1.218-2.265-2.435-4.53-3.557-6.777c-1.134-2.359-2.268-4.717-3.169-7.085
	c-2.162-5.272-3.712-10.48-4.308-15.503c-1.651,0.384-3.34,0.706-5.045,0.996c-1.191,0.203-2.39,0.39-3.588,0.571
	c-0.237-2.551-0.497-5.029-1.051-7.188c-2.235-8.711-14.513-9.931-20.521-10.118c-7.151-0.222-14.488,0.292-21.513,2.059
	c-5.488,1.38-11.1,2.436-16.157,5.583c-2.859,1.78-5.889,4.63-5.682,8.93c0.065,1.338,0.367,2.631,0.717,3.917l-1.203,0.727
	l-0.76,0.537l-1.516-0.285c-2.306-0.464-4.376-1.03-5.713-1.696c0.97,4.793,1.635,9.802,1.932,14.848
	c0.059,2.122,0.145,4.277,0.068,6.427c-0.018,1.833-0.078,3.713-0.163,5.56c-0.15,2.355-0.437,4.74-0.749,7.091
	c-0.265,1.922-0.626,3.826-1.081,5.711c-0.438,2.491-1.041,4.978-1.833,7.428c-1.49,4.919-3.997,9.22-5.868,14.319
	c-3.268,8.902-5.226,15.595-6.046,20.754c-5.08,10.686-7.94,22.75-7.94,35.521c0,3.326,0.195,6.394,0.572,9.225
	c-0.601-0.173-1.199-0.349-1.791-0.533c6.864,37.657,38.44,36.851,76.365,36.851c37.924,0,69.501,0.807,76.364-36.851
	C1130.586,2500.921,1129.988,2501.096,1129.388,2501.27z"/>
<path style="fill:#D98364;" d="M1000.877,309.568c-1.033-2.174-2.16-3.882-3.353-5.2c-6.518-7.202-14.997-2.674-20.726,2.089
	l-0.298,0.897c0.013,2.846,0.021,7.101,0.024,12.255c0.002,3.294,0.002,6.957,0.001,10.855c-0.001,2.451-0.002,4.995-0.004,7.599
	c-0.001,0.968-0.001,1.945-0.002,2.929c-0.008,10.829-0.022,22.47-0.035,32.681C993.192,374.235,1008.737,326.054,1000.877,309.568z
	"/>
<path style="fill:#D98364;" d="M756.06,339.273c-0.002-2.722-0.003-5.383-0.004-7.949c-0.001-3.757-0.001-7.306,0.001-10.534
	c0.003-5.315,0.009-9.756,0.022-12.813c-6.811-5.684-17.805-11.398-24.489,3.02l-0.195,0.439
	c-7.146,16.758,8.344,63.009,24.703,63.409c-0.013-9.986-0.027-21.456-0.035-32.239C756.062,341.486,756.061,340.375,756.06,339.273
	z"/>
<path style="fill:#D98364;" d="M964.446,291.869c-29.327-8.141-59.593-27.808-74.47-62.571
	c-13.036,22.34-34.736,38.447-59.195,49.265c-15.716,6.952-32.569,11.72-48.994,14.557c-4.566,0.788-9.098,1.428-13.563,1.923
	c0.024,2.686-0.115,5.73-0.46,9.152h-0.001c0.24,23.16,1.633,48.303,8.218,70.665c2.772,7.987,8.7,13.302,15.047,13.973
	c7.787,0.824,13.603-0.724,20.915-1.705c6.392-0.858,23.529-3.577,37.182-5.417c1.531,1.835,3.89,2.638,6.627,2.661
	c1.003-0.004,2.091-0.094,3.179-0.299c2.123,0.852,4.676,1.358,7.397,1.347c2.75-0.01,5.269-0.536,7.386-1.403
	c1.09,0.196,2.179,0.278,3.182,0.274c2.675-0.042,4.984-0.827,6.504-2.588c13.663,1.841,30.838,4.565,37.24,5.425
	c7.312,0.981,13.127,2.529,20.914,1.705c6.347-0.672,12.274-5.986,15.047-13.973c6.583-22.36,7.977-47.5,8.217-70.658l-0.026-0.008
	C964.302,299.344,964.224,295.255,964.446,291.869z"/>
<path style="fill:#AB3631;" d="M1113.428,1086.438c-2.041,97.83,15.124,196.137,27.68,294.133
	c17.955-1.844,35.903-4.506,53.953-8.738c49.157-11.526,26.629-50.228,16.525-87.148c-26.068-95.25-48.288-197.596-48.316-296.893
	c-0.003-11.916,0.405-23.79,1.063-35.636c-9.693-6.372-19.529-12.91-29.375-19.556
	C1124.848,987.402,1114.389,1040.383,1113.428,1086.438z"/>
<path style="fill:#AB3631;" d="M1102.227,606.017c13.157,9.806,25.712,22.758,37.18,36.421c-2.056-3.952-4.22-7.845-6.496-11.674
	c-7.767-13.065-22.342-34.528-38.972-48.964c1.834,3.066,3.451,6.24,4.816,9.507
	C1101.104,596.933,1102.168,601.509,1102.227,606.017z"/>
<path style="fill:#D03D34;" d="M756.078,307.977l0.003-0.549v-0.005l0,0c0,0-1.803-4.621-1.761-11.283
	c4.533-0.209,9.181-0.571,13.905-1.096c4.465-0.495,8.997-1.135,13.563-1.923c16.424-2.837,33.278-7.605,48.994-14.557
	c24.459-10.819,46.159-26.925,59.195-49.265c14.877,34.763,45.143,54.431,74.47,62.571c4.632,1.286,9.24,2.284,13.761,3.009
	c0.225,5.463-0.847,9.748-1.408,11.578c5.728-4.762,14.207-9.291,20.726-2.089c3.483-4.011,6.696-8.255,9.31-12.583
	c5.915-9.793,9.138-14.516,11.531-34.529c2.367-19-0.64-40.15-5.146-53.92c-7.532-23.016-26.124-43.433-52.294-58.153
	c-6.435,6.582-13.358,12.77-19.889,17.791c1.086,8.333,0.336,17.622-2.556,26.946c-8.012,25.832-29.424,42.146-47.825,36.439
	c-18.4-5.708-26.822-31.275-18.809-57.107c2.469-7.96,6.212-15.015,10.745-20.801c-3.74-8.064-7.25-17.518-10.009-26.998
	c-9.159-0.415-18.586-0.31-28.228,0.36c-48.588,2.728-103.095,38.219-122.418,81.523c-4.016,9.002-7.159,21.157-7.953,33.803
	c-1.171,12.417-0.55,20.634,1.229,31.339c2.3,13.837,8.605,28.79,15.127,41.01c0.342,0.642,0.693,1.292,1.053,1.947l0.195-0.439
	C738.273,296.579,749.267,302.292,756.078,307.977z"/>
<path style="fill:#D98364;" d="M654.247,2371.347c1.192,0.203,2.39,0.39,3.587,0.571c0.238-2.551,0.497-5.029,1.051-7.188
	c2.236-8.711,14.513-9.931,20.521-10.118c7.152-0.222,14.489,0.292,21.514,2.059c5.488,1.38,11.1,2.436,16.156,5.583
	c2.86,1.78,5.89,4.63,5.682,8.93c-0.065,1.338-0.367,2.631-0.717,3.917l1.203,0.727l0.76,0.537l1.516-0.285l2.203-27.636
	c-24.194-0.708-48.332-3.82-71.796-9.623L654.247,2371.347z"/>
<path style="fill:#5E3334;" d="M621.131,2125.72c2.197,27.557,4.485,55.107,6.827,82.653c0.869,10.218,1.689,20.446,2.695,30.652
	c3.174,32.177,7.221,64.608,13.08,96.443c3.393,0.991,6.784,1.991,10.211,2.862c0.66,0.168,1.322,0.329,1.983,0.493
	c23.464,5.802,47.602,8.915,71.796,9.623c10.181,0.298,20.372,0.173,30.526-0.359c7.614-82.168,16.789-161.381,26.021-244.539
	c3.203-28.849,7.033-57.641,11.273-86.384c-62.536-2.875-124.976-11.313-185.01-28.39
	C613.863,2034.454,617.495,2080.107,621.131,2125.72z"/>
<path style="fill:#D98364;" d="M1007.062,2376.081l1.516,0.285l0.76-0.537l1.203-0.727c-0.35-1.287-0.653-2.579-0.717-3.917
	c-0.207-4.3,2.823-7.15,5.682-8.93c5.057-3.148,10.669-4.203,16.157-5.583c7.025-1.767,14.362-2.281,21.513-2.059
	c6.009,0.187,18.286,1.407,20.521,10.118c0.554,2.159,0.814,4.636,1.051,7.188c1.198-0.181,2.397-0.368,3.588-0.571l-1.68-32.524
	c-23.464,5.802-47.602,8.915-71.796,9.623L1007.062,2376.081z"/>
<path style="fill:#F1EFE9;" d="M651.192,2412.712c-0.477-1.149-1.531-2.09-2.104-3.072c-7.259,1.249-13.807,2.885-20.05,5.5
	c-1.538,2.657-3.144,5.299-4.671,7.843l-0.731,1.183c8.75-3.017,17.882-6.012,27.167-8.846
	C651.324,2414.534,651.6,2413.694,651.192,2412.712z"/>
<path style="fill:#F1EFE9;" d="M650.891,2403.019c-1.06-2.162-2.608-3.056-1.041-5.357l0.536-0.769
	c-4.225,0.722-8.265,1.621-12.218,2.823c-1.535,2.847-3.18,5.634-4.852,8.454c5.78-1.704,11.671-3.385,17.64-5.007L650.891,2403.019
	z"/>
<path style="fill:#F1EFE9;" d="M654.001,2386.801c0.56-0.711,1.025-1.498,1.418-2.342c-3.548,0.319-7.032,0.766-10.525,1.394
	c-0.902,2.368-2.036,4.726-3.169,7.085c3.264-0.609,6.55-1.201,9.846-1.777C651.29,2389.382,652.23,2389.05,654.001,2386.801z"/>
<path style="fill:#F1EFE9;" d="M719.386,2412.593c-0.547,1.485,0.665,2.949,0.19,4.389c4.537,1.444,9.041,2.938,13.484,4.469
	c-0.793-2.45-1.394-4.937-1.833-7.428c-3.62-0.851-7.396-1.602-11.43-2.274L719.386,2412.593z"/>
<path style="fill:#F1EFE9;" d="M719.971,2399.311c-0.918,0.899-2.062,1.66-2.135,2.888c-0.075,1.242,0.937,2.112,1.928,3.052
	c3.482,1.002,6.946,2.024,10.381,3.063c-0.313-2.351-0.599-4.736-0.749-7.091C726.338,2400.483,723.209,2399.858,719.971,2399.311z"
	/>
<path style="fill:#F1EFE9;" d="M722.505,2388.018l-0.404,1.021c-0.978,1.46-2.599,2.337-2.496,4.014l0.137,0.698
	c3.18,0.625,6.349,1.263,9.492,1.91c-0.078-2.15,0.009-4.305,0.067-6.427C727.037,2388.757,724.777,2388.357,722.505,2388.018z"/>
<path style="fill:#D8D6C6;" d="M654.001,2386.801c-1.77,2.249-2.711,2.58-2.431,4.361l0.254,1.065
	c0.543,1.813-0.344,3.11-1.438,4.666l-0.536,0.769c-1.567,2.301-0.02,3.195,1.041,5.357l0.065,0.143
	c0.821,1.905-1.181,2.618-2.033,4.329c-0.393,0.79-0.225,1.479,0.166,2.15c0.573,0.982,1.627,1.922,2.104,3.072
	c0.408,0.981,0.131,1.822-0.389,2.61c-0.836,1.267-2.302,2.401-2.573,3.77c9.067-4.096,19.051-6.364,29.538-6.364
	c13.529,0,26.222,3.774,37.188,10.379c2.527-1.772,3.876-4.072,4.602-6.064l0.018-0.061c0.475-1.44-0.737-2.904-0.19-4.389
	l0.411-0.844c0.873-1.483,2.295-2.799,1.54-4.528c-0.331-0.759-0.948-1.379-1.572-1.972c-0.991-0.94-2.003-1.809-1.928-3.052
	c0.074-1.228,1.217-1.989,2.135-2.888l0.979-1.339c0.565-1.406-0.762-2.793-1.209-4.22l-0.137-0.698
	c-0.103-1.677,1.518-2.554,2.496-4.014l0.404-1.021c0.345-2.087-1.776-4.525-1.735-6.667c0.04-2.131,0.686-4.114,1.234-6.106
	l0.039-0.143c0.35-1.287,0.653-2.579,0.717-3.917c0.207-4.3-2.823-7.15-5.682-8.93c-5.056-3.148-10.669-4.203-16.156-5.583
	c-7.025-1.767-14.362-2.281-21.514-2.059c-6.008,0.187-18.286,1.407-20.521,10.118c-0.554,2.159-0.813,4.636-1.051,7.188
	c-0.408,4.382-0.754,8.978-2.415,12.542C655.025,2385.303,654.56,2386.09,654.001,2386.801z"/>
<path style="fill:#F1EFE9;" d="M677.768,2506.919c-28.093,0-53.964,0.284-74.574-5.649c-0.601-0.173-1.199-0.349-1.79-0.533
	c6.863,37.657,38.439,36.851,76.364,36.851c37.925,0,69.501,0.807,76.365-36.851c-0.592,0.184-1.19,0.36-1.79,0.533
	C731.734,2507.203,705.862,2506.919,677.768,2506.919z"/>
<path style="fill:#F1EFE9;" d="M1081.389,2412.712c-0.407,0.981-0.131,1.822,0.389,2.61c9.285,2.834,18.417,5.829,27.167,8.846
	l-0.731-1.183c-1.526-2.544-3.133-5.187-4.671-7.843c-6.242-2.616-12.791-4.251-20.05-5.5
	C1082.92,2410.623,1081.867,2411.563,1081.389,2412.712z"/>
<path style="fill:#F1EFE9;" d="M1082.731,2397.662c1.567,2.301,0.019,3.195-1.04,5.357l-0.065,0.143
	c5.97,1.623,11.861,3.303,17.64,5.007c-1.671-2.819-3.317-5.606-4.852-8.454c-3.953-1.202-7.994-2.101-12.219-2.823
	L1082.731,2397.662z"/>
<path style="fill:#F1EFE9;" d="M1077.163,2384.46c0.394,0.844,0.859,1.63,1.418,2.342c1.771,2.249,2.711,2.58,2.431,4.361
	c3.296,0.576,6.581,1.168,9.846,1.777c-1.134-2.359-2.268-4.717-3.169-7.085C1084.195,2385.226,1080.711,2384.779,1077.163,2384.46z
	"/>
<path style="fill:#F1EFE9;" d="M1013.196,2412.593l-0.411-0.844c-4.035,0.672-7.81,1.422-11.43,2.274
	c-0.438,2.491-1.041,4.978-1.833,7.428c4.442-1.531,8.947-3.025,13.484-4.469C1012.53,2415.543,1013.744,2414.079,1013.196,2412.593
	z"/>
<path style="fill:#F1EFE9;" d="M1014.745,2402.198c-0.074-1.228-1.217-1.989-2.135-2.888c-3.238,0.547-6.366,1.172-9.425,1.911
	c-0.15,2.355-0.437,4.74-0.749,7.091c3.435-1.039,6.898-2.061,10.381-3.062C1013.808,2404.31,1014.82,2403.441,1014.745,2402.198z"
	/>
<path style="fill:#F1EFE9;" d="M1012.839,2393.751l0.137-0.698c0.103-1.677-1.517-2.554-2.496-4.014l-0.404-1.021
	c-2.272,0.339-4.531,0.739-6.797,1.216c0.059,2.122,0.145,4.277,0.068,6.427C1006.492,2395.014,1009.66,2394.376,1012.839,2393.751z
	"/>
<path style="fill:#D8D6C6;" d="M1011.812,2381.351c0.041,2.142-2.081,4.58-1.736,6.667l0.404,1.021
	c0.979,1.46,2.599,2.337,2.496,4.014l-0.137,0.698c-0.447,1.427-1.773,2.815-1.209,4.22l0.979,1.339
	c0.918,0.899,2.061,1.66,2.135,2.888c0.075,1.242-0.937,2.112-1.928,3.052c-0.624,0.592-1.24,1.212-1.572,1.971
	c-0.755,1.729,0.667,3.045,1.54,4.528l0.411,0.844c0.548,1.485-0.665,2.949-0.189,4.389l0.017,0.061
	c0.727,1.992,2.076,4.292,4.603,6.064c10.966-6.605,23.658-10.379,37.187-10.379c10.487,0,20.471,2.268,29.538,6.364
	c-0.271-1.369-1.737-2.503-2.574-3.77c-0.52-0.788-0.797-1.628-0.389-2.61c0.478-1.149,1.531-2.09,2.104-3.072
	c0.392-0.67,0.559-1.36,0.166-2.15c-0.852-1.711-2.854-2.425-2.033-4.329l0.065-0.143c1.059-2.162,2.607-3.056,1.04-5.357
	l-0.536-0.769c-1.094-1.556-1.981-2.853-1.438-4.666l0.255-1.065c0.28-1.781-0.66-2.112-2.431-4.361
	c-0.559-0.711-1.024-1.498-1.418-2.342c-1.661-3.563-2.007-8.159-2.416-12.542c-0.237-2.551-0.497-5.029-1.051-7.188
	c-2.235-8.711-14.513-9.931-20.521-10.118c-7.151-0.222-14.488,0.292-21.513,2.059c-5.488,1.38-11.1,2.436-16.157,5.583
	c-2.859,1.78-5.889,4.63-5.682,8.93c0.065,1.338,0.367,2.631,0.717,3.917l0.039,0.143
	C1011.126,2377.237,1011.771,2379.22,1011.812,2381.351z"/>
<path style="fill:#F1EFE9;" d="M1054.814,2506.919c-28.094,0-53.965,0.284-74.574-5.649c-0.601-0.173-1.199-0.349-1.791-0.533
	c6.864,37.657,38.44,36.851,76.365,36.851c37.924,0,69.501,0.807,76.364-36.851c-0.592,0.184-1.19,0.36-1.79,0.533
	C1108.778,2507.203,1082.907,2506.919,1054.814,2506.919z"/>
<path style="fill:#5E3334;" d="M948.311,2103.548c9.232,83.158,18.407,162.37,26.021,244.539
	c10.154,0.531,20.345,0.657,30.526,0.359c24.194-0.708,48.332-3.82,71.796-9.623c0.661-0.164,1.323-0.325,1.983-0.493
	c3.427-0.871,6.818-1.871,10.212-2.862c5.859-31.836,9.906-64.266,13.079-96.443c1.007-10.205,1.827-20.434,2.695-30.652
	c2.342-27.546,4.63-55.096,6.826-82.653c3.673-46.075,7.342-92.192,10.698-138.336c-57.311,19.5-122.311,26.286-185.225,29.006
	C941.21,2045.39,945.08,2074.44,948.311,2103.548z"/>
<path style="fill:#333026;" d="M978.207,294.878c-4.521-0.725-9.129-1.723-13.761-3.009c-0.222,3.386-0.144,7.475,0.345,12.326
	l0.026,0.008c-0.24,23.157-1.633,48.298-8.217,70.658c-2.773,7.987-8.701,13.302-15.047,13.973
	c-7.788,0.824-13.603-0.724-20.914-1.705c-6.402-0.86-23.577-3.584-37.24-5.425c-1.52,1.761-3.829,2.546-6.504,2.588
	c-1.003,0.004-2.091-0.078-3.182-0.274c-2.117,0.867-4.636,1.393-7.386,1.403c-2.721,0.01-5.274-0.496-7.397-1.347
	c-1.088,0.205-2.177,0.295-3.179,0.299c-2.737-0.023-5.095-0.826-6.627-2.661c-13.654,1.84-30.79,4.559-37.182,5.417
	c-7.312,0.981-13.127,2.529-20.915,1.705c-6.347-0.672-12.274-5.986-15.047-13.973c-6.585-22.362-7.978-47.506-8.218-70.665h0.001
	c0.345-3.422,0.484-6.466,0.46-9.152c-4.723,0.525-9.371,0.887-13.905,1.096c-0.042,6.663,1.761,11.283,1.761,11.283l0,0v0.005
	l-0.003,0.549c-0.013,3.058-0.019,7.499-0.022,12.813c-0.002,3.228-0.001,6.777-0.001,10.534c0.001,2.566,0.003,5.227,0.004,7.949
	c0.001,1.102,0.002,2.213,0.003,3.333c0.008,10.783,0.022,22.253,0.035,32.239c0.015,12.513,0.028,22.695,0.023,26.273
	c-0.015,11.539,0.859,23.481,4.101,34.697c4.98,17.233,14.186,32.077,28.2,45.165c2.417,2.257,4.974,4.464,7.681,6.62
	c24.063,19.169,64.982,22.435,70.19,22.164c5.208,0.27,46.127-2.995,70.189-22.164c2.707-2.156,5.263-4.363,7.681-6.62
	c14.014-13.088,23.22-27.932,28.2-45.165c3.242-11.215,4.116-23.157,4.101-34.697c-0.005-3.689,0.008-14.399,0.024-27.446
	c0.013-10.211,0.027-21.852,0.035-32.681c0.001-0.984,0.001-1.961,0.002-2.929c0.002-2.605,0.003-5.148,0.004-7.599
	c0.001-3.898,0.001-7.561-0.001-10.855c-0.003-5.154-0.011-9.409-0.024-12.255l0.298-0.897
	C977.36,304.625,978.432,300.341,978.207,294.878z"/>
<path style="fill:#D98364;" d="M899.835,401.455c-9.186-2.221-20.807,1.031-33.544,1.031c-12.738,0-24.359-3.253-33.544-1.031
	c-13.539,3.274-18.264,20.466-10.304,27.14c6.344,4.316,8.515,7.684,18.456,9.884c6.483,1.435,18.824,3.283,25.393,2.849
	c6.568,0.435,18.91-1.414,25.393-2.849c9.942-2.201,12.113-5.568,18.457-9.885C918.098,421.92,913.373,404.729,899.835,401.455z"/>
<path style="fill:#D16F55;" d="M976.524,341.388c2.508,0.31,4.555,5.514,5.014,7.717c0.887,4.38-0.139,8.535-3.479,10.797
	c4.641-1.704,6.266-6.962,5.361-12.112c-0.582-3.71-3.044-8.98-6.899-9.728c-0.001,0.968-0.001,1.945-0.002,2.929L976.524,341.388z"
	/>
<path style="fill:#D16F55;" d="M982.774,318.273c1.946-2.437,4.088-4.729,7.139-5.714c8.494-2.766,8.27,14.724,8.206,19.036
	c0.852-4.03,1.836-8.061,1.134-12.405c-0.535-4.331-3.059-9.274-7.657-10.056c-4.016-0.72-7.191,1.702-9.842,3.982
	c-2.029,1.768-3.776,4.021-5.229,6.492c0.002,3.294,0.002,6.957,0.001,10.855C977.984,326,979.953,321.784,982.774,318.273z"/>
<path style="fill:#D16F55;" d="M749.425,349.031c-0.822,5.16,0.88,10.4,5.539,12.054c-3.426-2.225-4.479-6.369-3.583-10.76
	c0.398-2.134,2.281-7.092,4.682-7.72c-0.001-1.119-0.002-2.231-0.003-3.333C752.318,340.201,750.043,345.38,749.425,349.031z"/>
<path style="fill:#D16F55;" d="M750.741,314.341c-2.678-2.252-5.854-4.64-9.846-3.878c-4.586,0.83-7.076,5.8-7.571,10.137
	c-0.631,4.351,0.34,8.372,1.301,12.392c-0.162-4.312-0.539-21.797,7.99-19.122c3.061,0.953,5.221,3.221,7.147,5.637
	c2.809,3.402,4.792,7.483,6.294,11.816c-0.001-3.757-0.001-7.306,0.001-10.534C754.575,318.329,752.796,316.09,750.741,314.341z"/>
<path style="fill:#D16F55;" d="M932.71,342.703c-12.888-0.428-23.611,7.021-23.952,16.636c-0.341,9.616,9.831,17.758,22.719,18.186
	c12.888,0.428,23.612-7.02,23.952-16.636C955.77,351.274,945.598,343.132,932.71,342.703z"/>
<path style="fill:#D16F55;" d="M823.811,359.826c-0.434-9.612-11.231-16.937-24.114-16.361c-12.883,0.576-22.975,8.833-22.54,18.444
	c0.435,9.612,11.231,16.936,24.115,16.361C814.155,377.695,824.246,369.437,823.811,359.826z"/>
<path style="fill:#D16F55;" d="M849.026,420.622c5.526,1.872,11.453,2.691,17.346,2.742c5.884-0.051,11.825-0.843,17.349-2.759
	c5.342-1.826,10.312-4.724,13.918-8.625c2.237,1.849,4.36,2.725,4.36,2.725l-7.783-6.613c0.939,1.559,2.154,2.828,3.344,3.823
	c-4.349,3.176-9.391,5.302-14.582,6.738c-5.388,1.427-10.991,2.061-16.609,2.066c-5.611-0.001-11.213-0.659-16.624-2.05
	c-5.187-1.44-10.375-3.33-14.757-6.456c1.178-1.006,2.378-2.286,3.299-3.854l-7.706,6.688c0,0,2.113-0.898,4.329-2.769
	C838.584,416.152,843.715,418.803,849.026,420.622z"/>
<path style="fill:#D16F55;" d="M850.617,428.736c1.992,2.428,4.556,4.162,7.257,5.291c2.708,1.154,5.587,1.661,8.455,1.683
	c2.869-0.043,5.744-0.575,8.441-1.757c2.69-1.155,5.237-2.923,7.195-5.384c-5.1,2.771-10.336,3.996-15.65,4.027
	C861.001,432.618,855.75,431.437,850.617,428.736z"/>
<path style="fill:#D16F55;" d="M866.233,360.494c-10.515,0.04-19.007,4.627-18.967,15.143c0.01,2.695,0.697,4.681,1.859,6.074
	c1.531,1.835,3.89,2.638,6.627,2.661c1.003-0.004,2.091-0.094,3.179-0.299c2.123,0.852,4.676,1.358,7.397,1.347
	c2.75-0.01,5.269-0.536,7.386-1.403c1.09,0.196,2.179,0.278,3.182,0.274c2.675-0.042,4.984-0.827,6.504-2.588
	c1.214-1.407,1.926-3.437,1.915-6.211C885.275,364.978,876.749,360.454,866.233,360.494z"/>
<path style="fill:#2A1714;" d="M853.077,381.574c0,0,0.945-0.233,1.518-0.005c0,0-0.368,1.319,1.157,2.803
	c1.003-0.004,2.091-0.094,3.179-0.299C858.931,384.073,856.076,379.013,853.077,381.574z"/>
<path style="fill:#2A1714;" d="M878.031,381.479c0.573-0.231,1.519-0.006,1.519-0.006c-3.018-2.538-5.836,2.544-5.836,2.544
	c1.09,0.196,2.179,0.278,3.182,0.274C878.409,382.796,878.031,381.479,878.031,381.479z"/>
<path style="fill:#EFAF8F;" d="M866.241,362.322c-5.725,0.022-10.823,1.565-14.233,4.849c3.435,3.258,8.544,4.763,14.269,4.741
	c5.725-0.022,10.823-1.565,14.233-4.849C877.076,363.806,871.967,362.3,866.241,362.322z"/>
<path style="fill:#2A1714;" d="M915.512,280.488c1.437-1.678,3.083-3.53,4.19-5.463c-3.01-0.779-11.652,1.181-12.986,4.613
	c0.397-1.02,0.921-2.116,1.534-3.18c0.959-1.666,2.134-3.256,3.378-4.367c-4.186,1.488-7.409,3.066-10.604,6.424
	c-5.164,5.428-6.796,10.639-7.569,18.278c1.302-1.947,3.77-2.66,5.436-4.214c-0.672,1.801-0.995,3.748-1.09,5.757
	c2.552-3.163,37.289-8.185,60.559,5.743C948.857,282.182,927.524,277.26,915.512,280.488z"/>
<path style="fill:#D16F55;" d="M786.758,334.719c2.217-2.756,5.415-4.826,8.92-6.198c3.512-1.388,7.419-2.077,11.295-1.931
	c3.85,0.253,7.698,0.991,11.06,2.621c1.755,0.654,3.238,1.773,4.798,2.677c1.127,0.841,2.198,1.74,3.205,2.679
	c0.585,0.494,0.842,0.806,0.842,0.806s-2.6-11.587-17.734-13.161S786.758,334.719,786.758,334.719z"/>
<path style="fill:#2A1714;" d="M822.831,331.888c-1.559-0.904-3.043-2.023-4.798-2.677c-3.362-1.63-7.21-2.368-11.06-2.621
	c-3.876-0.146-7.784,0.543-11.295,1.931c-3.505,1.372-6.703,3.441-8.92,6.198c3.343-1.468,6.646-2.555,9.991-3.273
	c3.343-0.665,6.692-1.092,10.043-0.89c3.334,0.17,6.691,0.614,9.996,1.542c1.696,0.346,3.278,1.034,4.996,1.493
	c1.668,0.568,3.287,1.267,5.094,1.781l-0.842-0.806C825.029,333.627,823.958,332.729,822.831,331.888z"/>
<path style="fill:#D16F55;" d="M923.062,321.446c-15.116,1.729-17.589,13.342-17.589,13.342s0.255-0.316,0.836-0.818
	c0.996-0.948,2.055-1.856,3.172-2.709c1.55-0.92,3.021-2.054,4.768-2.726c3.344-1.664,7.184-2.442,11.03-2.734
	c3.875-0.186,7.789,0.463,11.316,1.815c3.52,1.336,6.74,3.372,8.988,6.106C945.585,333.722,938.178,319.716,923.062,321.446z"/>
<path style="fill:#2A1714;" d="M936.597,327.616c-3.527-1.352-7.442-2.001-11.316-1.815c-3.846,0.292-7.687,1.07-11.03,2.734
	c-1.748,0.672-3.219,1.806-4.768,2.726c-1.117,0.853-2.176,1.761-3.172,2.709l-0.836,0.818c1.801-0.533,3.413-1.249,5.075-1.834
	c1.712-0.477,3.287-1.181,4.979-1.544c3.295-0.962,6.648-1.441,9.98-1.646c3.349-0.236,6.701,0.156,10.051,0.787
	c3.353,0.683,6.668,1.736,10.027,3.17C943.337,330.988,940.117,328.952,936.597,327.616z"/>
<path style="fill:#2A1714;" d="M834.715,298.841c-0.117-2.008-0.461-3.951-1.152-5.746c1.683,1.537,4.159,2.224,5.481,4.158
	c-0.857-7.63-2.546-12.825-7.769-18.199l-0.494-0.491c-15.716,6.952-32.569,11.72-48.994,14.557
	c-2.947,3.285-5.543,7.284-7.565,12.087C797.339,291.04,832.129,295.704,834.715,298.841z"/>
<path style="fill:#FBC666;" d="M882.592,148.451c10.179-12.992,24.349-19.587,37.079-15.638
	c11.759,3.647,19.442,15.406,21.365,30.161c6.531-5.021,13.454-11.209,19.889-17.791c2.951-3.018,5.8-6.119,8.461-9.227
	c19.06-22.265,21.271-36.475,14.185-42.541c-7.086-6.066-20.785-1.691-39.846,20.573c-2.403,2.807-4.776,5.765-7.075,8.802
	c1.718-6.034,3.187-12.229,4.286-18.228c5.281-28.828,0.048-42.224-9.128-43.904c-9.175-1.681-18.817,8.989-24.099,37.817
	c-1.049,5.728-1.846,11.742-2.38,17.716c-0.68-4.109-1.483-8.185-2.4-12.116c-6.661-28.541-16.805-38.735-25.889-36.615
	c-9.083,2.12-13.667,15.752-7.006,44.293c0.747,3.2,1.604,6.452,2.548,9.7C875.341,130.934,878.852,140.387,882.592,148.451z"/>
<path style="fill:#FCFAE9;" d="M919.671,132.813c-12.73-3.949-26.901,2.646-37.079,15.638c-4.534,5.786-8.276,12.841-10.745,20.801
	c-8.012,25.833,0.409,51.4,18.809,57.107c18.4,5.707,39.813-10.607,47.825-36.439c2.892-9.324,3.642-18.613,2.556-26.946
	C939.113,148.22,931.43,136.46,919.671,132.813z M924.092,185.458c-4.987,16.077-17.504,26.481-27.958,23.239
	c-10.453-3.242-14.886-18.904-9.899-34.981c4.987-16.077,17.504-26.482,27.958-23.239
	C924.647,153.718,929.079,169.38,924.092,185.458z"/>
<path style="fill:#FBC666;" d="M914.193,150.476c-10.454-3.243-22.971,7.162-27.958,23.239c-4.987,16.077-0.554,31.739,9.899,34.981
	c10.454,3.242,22.972-7.162,27.958-23.239C929.079,169.38,924.647,153.718,914.193,150.476z"/>
<path style="fill:#D03D34;" d="M906.409,643.054c1.515,4.165,2.95,8.92,4.258,15.381c3.94,19.466,33.275,62.341,103.855,95.197
	c2.373,1.104,4.76,2.169,7.162,3.199c12.481-18.494,23.459-38.096,34.282-55.615c15.632-25.303,34.328-51.843,43.413-80.016
	c1.855-5.752,2.91-10.43,2.849-15.183c-0.059-4.508-1.123-9.084-3.473-14.71c-1.365-3.267-2.982-6.441-4.816-9.507
	c-9.538-15.947-24.978-28.93-41.696-36.433c-12.328-5.534-35.742-14.577-49.82-7.21c-0.312,0.721-0.624,1.446-0.936,2.172
	c-7.827,18.262-15.312,37.876-28.756,53.951C952.162,618.874,933.312,634.806,906.409,643.054z"/>
<path style="fill:#D03D34;" d="M927.452,827.994c13.046-1.865,24.772-6.047,35.434-11.944
	c-10.719-6.508-21.703-13.305-33.153-20.792c-30.038-19.644-56.978-62.901-63.708-107.029
	c-5.972,39.153-27.852,77.619-53.692,99.516C842.215,816.384,886.167,833.895,927.452,827.994z"/>
<path style="fill:#D03D34;" d="M692.069,628.991c18.566,34.35,48.698,58.657,69.786,91.414c1.179,1.831,2.359,3.67,3.541,5.51
	c36.523-26.292,53.096-53.191,55.988-67.48c1.71-8.45,3.641-13.985,5.679-19.094c-19.189-8.262-36.703-21.151-50.098-35.741
	c-15.073-16.418-33.374-38.486-41.347-67.474c-0.159-0.578-0.315-1.158-0.466-1.741c-11.382-11.182-37.478-4.029-49.321,4.792
	c-10.981,8.18-18.015,17.527-17.997,30.318c0.002,1.826,0.073,3.585,0.204,5.288C669.686,596.258,681.103,608.701,692.069,628.991z"
	/>
<path style="fill:#D98364;" d="M1278.012,989.388c2.376-9.9,4.266-19.936,5.342-30.122c3.898-36.915-4.189-72.891-24.07-102.32
	c-8.961-13.265-19.484-24.83-30.428-35.918c-68.626-34.739-143.004-36.689-207.172-64.197c-2.402-1.03-4.79-2.095-7.162-3.199
	c-70.581-32.856-99.915-75.731-103.855-95.197c-1.308-6.46-2.743-11.216-4.258-15.381c-3.045-8.373-6.408-14.356-9.684-26.983
	c0.926-7.239,1.757-14.401,3.7-21.513c1.41-5.162,4.079-11.955,2.569-17.356c-0.214-0.765-0.522-1.468-0.904-2.103
	c0.731-3.181,1.098-6.418,0.301-9.268c-0.396-1.415-1.113-2.618-2.036-3.57c0.488-2.651,0.629-5.288-0.033-7.658
	c-0.651-2.33-2.17-4.087-4.058-5.085c1.005-3.749,1.711-7.701,0.761-11.1c-0.959-3.428-3.793-5.615-6.919-5.966l0.612-4.548
	l59.111-25.913c-1.709-6.891-3.611-13.905-5.667-21.012c-2.418,2.257-4.974,4.464-7.681,6.62
	c-24.063,19.169-64.982,22.435-70.189,22.164c-5.208,0.27-46.127-2.995-70.19-22.164c-2.707-2.156-5.263-4.363-7.681-6.62
	c-2.056,7.108-3.958,14.121-5.667,21.012l59.111,25.913l0.606,4.508c-3.329,0.152-6.432,2.387-7.444,6.006
	c-0.951,3.399-0.244,7.351,0.76,11.1c-1.887,0.998-3.406,2.755-4.057,5.085c-0.662,2.37-0.521,5.007-0.034,7.658
	c-0.923,0.951-1.64,2.154-2.036,3.57c-0.797,2.85-0.429,6.087,0.302,9.268c-0.383,0.635-0.691,1.338-0.904,2.103
	c-1.51,5.4,1.158,12.194,2.569,17.356c1.942,7.111,2.773,14.274,3.7,21.513c-2.773,10.693-5.61,16.621-8.263,23.27
	c-2.038,5.109-3.969,10.644-5.679,19.094c-2.891,14.288-19.465,41.188-55.988,67.48c-13.236,9.529-29.092,18.977-47.867,27.717
	c-65.754,30.608-143.14,31.356-214.335,67.396c-10.944,11.088-21.466,22.653-30.428,35.918
	c-19.88,29.428-27.967,65.405-24.07,102.32c1.075,10.186,2.966,20.223,5.342,30.122c30.491,8.678,67.714-7.42,86.67-19.649
	c8.563-5.524,17.363-11.245,26.288-17.109c8.529-5.603,17.174-11.338,25.839-17.163c28.353-19.055,56.928-39.057,82.394-58.477
	c43.422-33.116,81.573-51.969,127.086-81.732c3.387-2.214,6.734-4.731,10.017-7.513c25.839-21.897,47.72-60.363,53.692-99.516
	c6.73,44.128,33.67,87.385,63.708,107.029c11.45,7.487,22.433,14.285,33.153,20.792c31.89,19.359,61.436,36.155,93.934,60.94
	c24.192,18.449,51.19,37.422,78.138,55.611c9.846,6.646,19.682,13.184,29.375,19.556l0.719,0.472
	c8.926,5.864,17.727,11.585,26.289,17.109C1210.298,981.968,1247.52,998.066,1278.012,989.388z M866.025,608.313
	c-0.285-9.344-0.456-18.38-0.326-26.899l0.591,0.005l0.06-0.001C866.482,589.936,866.31,598.971,866.025,608.313z"/>
<path style="fill:#F3954A;" d="M853.914,833.41c-3.219,48.691-5.363,97.427-7.773,146.161c-1.972,48.747-3.631,97.505-5.156,146.272
	c-2.9,97.538-3.783,195.119-4.564,292.696l1.587,146.372c0.706,48.787,0.895,97.581,2.107,146.355
	c2.585,97.543,7.537,195.034,12.83,292.442c0.185-48.81-0.516-97.576-0.745-146.349l-1.081-73.133
	c-0.433-24.375-0.796-48.749-0.483-73.136c0.401-97.524-0.651-195.019-0.552-292.522c-0.362-97.511,0.726-195.015,1.374-292.534
	L853.914,833.41z"/>
<path style="fill:#FFFFFF;" d="M871.719,1274.832h0.067c5.61,0,10.193-4.582,10.259-10.188c0.07-5.677-4.512-10.329-10.122-10.329
	c-5.676-0.067-10.325,4.445-10.396,10.122C861.461,1270.114,866.042,1274.766,871.719,1274.832z"/>
<path style="fill:#FFFFFF;" d="M873.293,1151.591h0.203c5.61,0,10.192-4.445,10.259-10.052c0.07-5.677-4.375-10.329-10.051-10.466
	c-5.677-0.067-10.396,4.445-10.466,10.122C863.17,1146.805,867.685,1151.524,873.293,1151.591z"/>
<path style="fill:#FFFFFF;" d="M870.897,1398.007c5.607,0,10.259-4.585,10.259-10.191c0-5.678-4.581-10.326-10.189-10.326
	c-5.677,0-10.328,4.582-10.328,10.259C860.639,1393.355,865.221,1398.007,870.897,1398.007z"/>
<path style="fill:#FFFFFF;" d="M871.172,1336.385h0.067c5.61,0,10.192-4.515,10.259-10.189c0.07-5.61-4.511-10.259-10.188-10.329
	c-5.677,0-10.259,4.515-10.329,10.192C860.913,1331.736,865.495,1336.385,871.172,1336.385z"/>
<path style="fill:#FFFFFF;" d="M872.404,1213.213h0.137c5.607,0,10.188-4.515,10.259-10.122c0.067-5.677-4.448-10.329-10.122-10.395
	c-5.677-0.07-10.329,4.445-10.396,10.122C862.212,1208.495,866.727,1213.143,872.404,1213.213z"/>
<path style="fill:#FFFFFF;" d="M879.173,905.244h0.274c5.54,0,10.122-4.375,10.258-9.915c0.207-5.677-4.241-10.396-9.918-10.603
	c-5.673-0.137-10.392,4.308-10.599,9.985C869.051,900.322,873.496,905.107,879.173,905.244z"/>
<path style="fill:#FFFFFF;" d="M877.396,966.797h0.274c5.537,0,10.052-4.375,10.259-9.915c0.137-5.677-4.311-10.395-9.985-10.532
	c-5.676-0.207-10.395,4.238-10.532,9.915C867.275,961.941,871.719,966.66,877.396,966.797z"/>
<path style="fill:#FFFFFF;" d="M875.824,1028.419h0.274c5.536,0,10.052-4.445,10.189-9.985c0.137-5.677-4.308-10.395-9.985-10.532
	c-5.677-0.137-10.325,4.374-10.462,9.985C865.701,1023.563,870.146,1028.282,875.824,1028.419z"/>
<path style="fill:#FFFFFF;" d="M874.454,1090.038h0.204c5.61,0,10.125-4.512,10.259-10.051c0.137-5.677-4.375-10.396-10.052-10.466
	c-5.607-0.137-10.329,4.378-10.466,10.056C864.333,1085.183,868.777,1089.901,874.454,1090.038z"/>
<path style="fill:#FFFFFF;" d="M871.105,1582.801h0.067c5.677,0,10.192-4.652,10.192-10.259c0-5.677-4.652-10.259-10.329-10.259
	c-5.676,0.067-10.188,4.718-10.188,10.326C860.846,1578.286,865.495,1582.801,871.105,1582.801z"/>
<path style="fill:#FFFFFF;" d="M876.505,1890.837h0.274c5.611-0.207,10.122-4.926,9.918-10.533
	c-0.137-5.677-4.856-10.191-10.533-9.985c-5.677,0.134-10.122,4.855-9.985,10.529
	C866.383,1886.389,870.897,1890.837,876.505,1890.837z"/>
<path style="fill:#FFFFFF;" d="M870.761,1459.627c5.677,0,10.259-4.582,10.259-10.259s-4.582-10.259-10.259-10.259
	c-5.676,0-10.258,4.582-10.258,10.259S865.084,1459.627,870.761,1459.627z"/>
<path style="fill:#FFFFFF;" d="M874.795,1829.215h0.274c5.676-0.138,10.122-4.789,9.985-10.463
	c-0.137-5.677-4.786-10.193-10.463-10.055c-5.677,0.137-10.192,4.855-10.055,10.532
	C864.673,1824.77,869.258,1829.215,874.795,1829.215z"/>
<path style="fill:#FFFFFF;" d="M878.011,1931.872c-5.677,0.203-10.122,4.922-9.918,10.599c0.207,5.54,4.722,9.918,10.259,9.918
	h0.344c5.677-0.207,10.122-4.926,9.915-10.603C888.406,1936.109,883.688,1931.665,878.011,1931.872z"/>
<path style="fill:#FFFFFF;" d="M873.43,1767.662h0.274c5.607-0.137,10.122-4.789,10.051-10.463
	c-0.137-5.677-4.786-10.192-10.462-10.055c-5.678,0.07-10.193,4.789-10.056,10.463
	C863.307,1763.147,867.889,1767.662,873.43,1767.662z"/>
<path style="fill:#FFFFFF;" d="M872.404,1706.043h0.137c5.673-0.07,10.188-4.722,10.122-10.396
	c-0.07-5.677-4.719-10.191-10.395-10.122c-5.678,0.067-10.193,4.719-10.122,10.396
	C862.212,1701.528,866.794,1706.043,872.404,1706.043z"/>
<path style="fill:#FFFFFF;" d="M870.831,1521.249c5.674,0,10.259-4.652,10.259-10.329c0-5.677-4.652-10.188-10.259-10.188
	c-5.677,0-10.259,4.582-10.259,10.259C860.572,1516.664,865.154,1521.249,870.831,1521.249z"/>
<path style="fill:#FFFFFF;" d="M871.649,1644.421h0.07c5.677-0.067,10.189-4.652,10.189-10.326
	c-0.067-5.677-4.719-10.259-10.396-10.193c-5.673,0.07-10.188,4.719-10.188,10.396
	C861.391,1639.905,865.976,1644.421,871.649,1644.421z"/>
<path style="fill:#2A1714;" d="M654.172,1918.409h-0.057c-1.685-0.032-3.028-1.423-2.998-3.111
	c0.642-34.937-0.179-70.561-0.976-105.012c-0.62-26.959-1.262-54.837-1.202-82.238c0.003-1.688,1.521-2.983,3.061-3.049
	c1.689,0.003,3.053,1.375,3.05,3.061c-0.06,27.326,0.582,55.166,1.202,82.086c0.797,34.513,1.617,70.199,0.976,105.265
	C657.198,1917.079,655.834,1918.409,654.172,1918.409z"/>
<path style="fill:#2A1714;" d="M721.69,1465.401c-1.677,0-3.043-1.355-3.055-3.034c-0.937-136.288-18.343-243.442-56.443-347.439
	c-0.579-1.584,0.236-3.339,1.82-3.921c1.587-0.566,3.339,0.236,3.92,1.82c38.35,104.686,55.872,212.475,56.812,349.497
	c0.012,1.686-1.346,3.064-3.034,3.077H721.69z"/>
<path style="fill:#2A1714;" d="M769.605,1820.403l-0.277-0.012c-1.68-0.152-2.921-1.634-2.769-3.317
	c1.086-12.075,2.198-24.164,3.309-36.268c11.779-128.176,23.955-260.716,7.593-389.946c-0.212-1.674,0.972-3.204,2.646-3.416
	c1.707-0.185,3.201,0.972,3.416,2.646c16.445,129.891,4.236,262.769-7.569,391.273c-1.113,12.101-2.223,24.188-3.309,36.259
	C772.502,1819.21,771.169,1820.403,769.605,1820.403z"/>
<path style="fill:#2A1714;" d="M974.33,1809.513h-0.084c-1.688-0.048-3.019-1.45-2.974-3.136
	c3.819-142.461,14.974-260.878,35.104-372.662c2.712-15.052,5.508-30.065,8.3-45.069c8.915-47.865,18.134-97.359,24.137-146.641
	c0.203-1.671,1.7-2.897,3.401-2.661c1.674,0.203,2.867,1.724,2.661,3.401c-6.024,49.473-15.258,99.063-24.191,147.02
	c-2.793,14.993-5.585,29.994-8.294,45.031c-20.076,111.477-31.199,229.599-35.009,371.743
	C977.337,1808.197,975.977,1809.513,974.33,1809.513z"/>
<path style="fill:#2A1714;" d="M1076.689,1898.807c-1.352,0-2.59-0.904-2.951-2.276c-21.052-79.733-47.25-178.965-26.153-267.194
	c0.394-1.641,2.046-2.632,3.681-2.262c1.641,0.394,2.653,2.041,2.261,3.682c-20.741,86.734,5.242,185.144,26.118,264.216
	c0.43,1.629-0.543,3.303-2.175,3.732L1076.689,1898.807z"/>
<path style="fill:#2A1714;" d="M791.379,1182.272c-1.429,0-2.703-1.005-2.993-2.458c-1.832-9.21-3.532-18.524-5.242-27.881
	c-6.42-35.164-13.059-71.525-27.237-104.358c-0.669-1.548,0.045-3.348,1.594-4.016c1.542-0.672,3.347,0.042,4.016,1.593
	c14.455,33.472,21.159,70.182,27.639,105.683c1.703,9.324,3.398,18.608,5.221,27.786c0.331,1.656-0.746,3.264-2.399,3.592
	L791.379,1182.272z"/>
<path style="fill:#2A1714;" d="M996.107,1127.822l-0.887-0.131c-1.614-0.49-2.527-2.196-2.037-3.81
	c5.984-19.749,12.596-39.585,19.655-58.961c0.573-1.584,2.342-2.405,3.915-1.826c1.587,0.576,2.404,2.33,1.826,3.915
	c-7.02,19.274-13.596,39.004-19.548,58.644C998.631,1126.972,997.419,1127.822,996.107,1127.822z"/>
<path style="fill:#2A1714;" d="M584.483,787.341l-0.453-0.032c-1.667-0.25-2.819-1.802-2.572-3.473
	c0.868-5.827,1.692-11.776,2.521-17.773c2.339-16.913,4.759-34.4,8.411-50.687c0.373-1.644,2.008-2.667,3.649-2.312
	c1.647,0.367,2.682,2.002,2.312,3.649c-3.595,16.04-5.997,33.398-8.318,50.189c-0.832,6.018-1.658,11.988-2.53,17.836
	C587.276,786.252,585.972,787.341,584.483,787.341z"/>
<path style="fill:#2A1714;" d="M575.046,785.888l-0.582-0.057c-1.656-0.32-2.742-1.922-2.42-3.578
	c1.128-5.857,1.206-12.4,1.283-18.727c0.024-2.098,0.051-4.171,0.11-6.194c0.054-1.689,1.534-2.984,3.148-2.963
	c1.685,0.054,3.013,1.462,2.962,3.148c-0.062,1.987-0.086,4.025-0.11,6.083c-0.081,6.597-0.161,13.417-1.397,19.811
	C577.761,784.873,576.481,785.888,575.046,785.888z"/>
<path style="fill:#2A1714;" d="M441.467,908.58l-0.57-0.053c-1.659-0.313-2.748-1.913-2.435-3.568
	c5.549-29.328,25.023-98.949,85.842-112.044c1.665-0.356,3.279,0.695,3.631,2.342c0.356,1.65-0.695,3.276-2.342,3.631
	c-57.242,12.325-75.805,79.079-81.128,107.204C444.188,907.56,442.908,908.58,441.467,908.58z"/>
<path style="fill:#2A1714;" d="M1149.872,787.341c-1.489,0-2.792-1.089-3.019-2.604c-0.871-5.848-1.698-11.818-2.53-17.836
	c-2.321-16.791-4.723-34.149-8.318-50.189c-0.37-1.647,0.665-3.282,2.312-3.649c1.641-0.358,3.279,0.668,3.649,2.312
	c3.651,16.287,6.071,33.774,8.41,50.687c0.83,5.997,1.653,11.946,2.521,17.773c0.248,1.671-0.904,3.223-2.572,3.473
	L1149.872,787.341z"/>
<path style="fill:#2A1714;" d="M1159.309,785.888c-1.435,0-2.715-1.015-2.995-2.477c-1.235-6.391-1.316-13.211-1.396-19.805
	c-0.024-2.062-0.048-4.099-0.111-6.089c-0.051-1.686,1.277-3.094,2.963-3.148c1.626-0.021,3.097,1.274,3.147,2.963
	c0.06,2.026,0.087,4.102,0.111,6.203c0.075,6.325,0.152,12.865,1.283,18.719c0.323,1.656-0.764,3.258-2.419,3.578L1159.309,785.888z
	"/>
<path style="fill:#2A1714;" d="M1292.889,908.58c-1.441,0-2.721-1.02-2.999-2.488c-5.322-28.126-23.886-94.879-81.128-107.204
	c-1.647-0.355-2.697-1.981-2.342-3.631c0.355-1.647,1.96-2.698,3.631-2.342c60.82,13.094,80.293,82.716,85.843,112.044
	c0.313,1.656-0.776,3.255-2.435,3.568L1292.889,908.58z"/>
<path style="fill:#2A1714;" d="M980.858,621.092c-0.63,0-1.262-0.194-1.808-0.593c-1.361-1.003-1.65-2.915-0.651-4.272
	c15.366-20.867,25.208-41.844,32.909-70.138c0.444-1.629,2.133-2.587,3.75-2.145c1.629,0.441,2.59,2.121,2.145,3.75
	c-7.909,29.066-18.044,50.643-33.881,72.154C982.722,620.662,981.798,621.092,980.858,621.092z"/>
<path style="fill:#2A1714;" d="M1040.368,596.953l-1.355-0.34c-1.482-0.805-2.112-2.512-1.303-3.992
	c5.52-10.147,11.594-21.305,10.532-32.369c-0.161-1.68,1.068-3.171,2.748-3.333c1.665-0.215,3.171,1.065,3.333,2.748
	c1.241,12.924-5.305,24.958-11.084,35.57C1042.665,596.293,1041.516,596.953,1040.368,596.953z"/>
<path style="fill:#2A1714;" d="M1022.24,711.114c-0.647,0-1.304-0.205-1.859-0.632c-1.336-1.026-1.59-2.945-0.561-4.284
	c16.01-20.846,35.713-49.08,46.036-82.662c2.023-6.581,3.109-13.617,4.156-20.419c1.106-7.169,2.249-14.583,4.496-21.586
	c0.513-1.602,2.238-2.482,3.843-1.975c1.605,0.516,2.491,2.234,1.975,3.843c-2.098,6.543-3.157,13.393-4.275,20.649
	c-1.08,7.02-2.199,14.279-4.353,21.285c-10.613,34.516-30.71,63.334-47.033,84.589
	C1024.063,710.703,1023.159,711.114,1022.24,711.114z"/>
<path style="fill:#2A1714;" d="M954.731,696.594c-1.113,0-2.184-0.609-2.724-1.668c-0.767-1.501-0.17-3.341,1.333-4.108
	c5.075-2.59,9.124-7.378,13.035-12.006c1.02-1.205,2.032-2.404,3.058-3.559c14.602-16.484,25.769-34.152,35.665-50.789
	c0.86-1.45,2.742-1.927,4.186-1.065c1.45,0.862,1.927,2.736,1.065,4.186c-10.048,16.899-21.407,34.857-36.345,51.72
	c-0.99,1.122-1.972,2.282-2.963,3.452c-4.302,5.09-8.754,10.356-14.927,13.504L954.731,696.594z"/>
<path style="fill:#2A1714;" d="M986.667,714.017c-0.662,0-1.33-0.214-1.891-0.656c-1.322-1.047-1.548-2.968-0.504-4.293
	c7.927-10.037,13.912-18.456,19.404-27.303c0.892-1.429,2.778-1.873,4.207-0.984c1.435,0.889,1.874,2.775,0.984,4.207
	c-5.621,9.049-11.725,17.645-19.799,27.869C988.466,713.617,987.571,714.017,986.667,714.017z"/>
<path style="fill:#2A1714;" d="M895.926,799.684l-0.242-0.009c-2.136-0.167-4.514-0.29-7.044-0.42
	c-13.689-0.713-32.44-1.686-42.071-11.361c-1.19-1.193-1.184-3.13,0.012-4.321c1.187-1.193,3.127-1.184,4.32,0.012
	c7.969,8.005,25.357,8.906,38.055,9.565c2.587,0.134,5.021,0.263,7.205,0.433c1.683,0.131,2.939,1.602,2.808,3.285
	C898.844,798.469,897.504,799.684,895.926,799.684z"/>
<path style="fill:#2A1714;" d="M696.279,610.93c-1.193,0-2.327-0.705-2.819-1.877c-1.379-3.297-3.061-6.803-4.813-10.448
	c-6.045-12.597-12.895-26.876-11.376-40.439c0.188-1.674,1.707-2.84,3.377-2.697c1.677,0.188,2.885,1.701,2.697,3.377
	c-1.325,11.821,5.123,25.259,10.813,37.115c1.796,3.744,3.523,7.349,4.941,10.735c0.65,1.557-0.084,3.344-1.641,3.998
	L696.279,610.93z"/>
<path style="fill:#2A1714;" d="M784.12,677.719c-0.552,0-1.113-0.149-1.617-0.466c-42.707-26.7-67.664-71.888-88.271-116.743
	c-0.708-1.534-0.033-3.348,1.501-4.052c1.528-0.707,3.344-0.039,4.052,1.501c20.21,43.992,44.612,88.265,85.958,114.115
	c1.429,0.895,1.865,2.778,0.97,4.21C786.134,677.212,785.138,677.719,784.12,677.719z"/>
<path style="fill:#2A1714;" d="M757.988,616.011c-0.824,0-1.647-0.331-2.25-0.987c-11.606-12.626-28.114-32.106-37.408-55.417
	l-0.949-2.27c-1.65-3.864-3.076-7.203-1.506-12.102c0.513-1.608,2.219-2.494,3.84-1.978c1.608,0.513,2.494,2.235,1.978,3.84
	c-0.841,2.626-0.244,4.207,1.307,7.838c0.322,0.752,0.662,1.548,1.005,2.407c8.924,22.374,24.951,41.274,36.232,53.546
	c1.143,1.241,1.06,3.174-0.182,4.318C759.467,615.745,758.727,616.011,757.988,616.011z"/>
<path style="fill:#2A1714;" d="M776.134,703.853l-1.575-0.439c-4.222-2.548-8.259-5.511-12.164-8.375
	c-4.693-3.44-9.544-6.996-14.565-9.7c-1.486-0.8-2.044-2.652-1.245-4.138c0.803-1.488,2.652-2.046,4.138-1.244
	c5.397,2.906,10.424,6.591,15.285,10.156c3.794,2.784,7.721,5.663,11.707,8.067c1.444,0.871,1.909,2.751,1.038,4.195
	C778.177,703.327,777.169,703.853,776.134,703.853z"/>
</svg>
